<svg width="349" height="531" viewBox="0 0 349 531" fill="none" xmlns="http://www.w3.org/2000/svg">
<rect width="349" height="531" rx="20" fill="white"/>
<rect width="349" height="531" rx="24" fill="white"/>
<path d="M211 370C178 362 144.342 370 142.512 372C159.312 354.4 165.667 330 166.5 319C159.3 333 140.012 335.167 131.512 335.5C67.1119 327.1 86.5 271 102.5 253C107.5 243.5 152.5 189.667 175.5 159.5C200.488 191.5 232 228 250 253C266.988 272 275.488 303.5 252.5 323C225.751 345.691 196.845 330.333 184.512 319C186.512 336.2 203.667 359.5 211 370Z" fill="black" stroke="black"/>
<path d="M33.5 146C34.9265 144.886 43.6844 145.614 44 146C40.5 140.5 40.3908 137.896 40.2471 135.774C41.4887 138.475 44.8147 138.893 46.2805 138.958C57.3856 137.337 54.0423 126.513 51.2833 123.04C50.4211 121.207 42.6613 110.82 38.6951 105C34.3862 111.174 28.9523 118.216 25.8483 123.04C22.9189 126.706 21.4531 132.784 25.4172 136.546C30.0299 140.924 35.0144 137.961 37.1411 135.774C36.7962 139.093 34.7646 143.974 33.5 146Z" fill="black"/>
<path d="M33.5 146C34.9265 144.886 43.6844 145.614 44 146C40.5 140.5 40.3908 137.896 40.2471 135.774C41.4887 138.475 44.8147 138.893 46.2805 138.958C57.3856 137.337 54.0423 126.513 51.2833 123.04C50.4211 121.207 42.6613 110.82 38.6951 105C34.3862 111.174 28.9523 118.216 25.8483 123.04C22.9189 126.706 21.4531 132.784 25.4172 136.546C30.0299 140.924 35.0144 137.961 37.1411 135.774C36.7962 139.093 34.7646 143.974 33.5 146Z" fill="black"/>
<path d="M33.5 146C34.9265 144.886 43.6844 145.614 44 146C40.5 140.5 40.3908 137.896 40.2471 135.774C41.4887 138.475 44.8147 138.893 46.2805 138.958C57.3856 137.337 54.0423 126.513 51.2833 123.04C50.4211 121.207 42.6613 110.82 38.6951 105C34.3862 111.174 28.9523 118.216 25.8483 123.04C22.9189 126.706 21.4531 132.784 25.4172 136.546C30.0299 140.924 35.0144 137.961 37.1411 135.774C36.7962 139.093 34.7646 143.974 33.5 146Z" stroke="black"/>
<path d="M309.5 385C310.926 386.114 319.684 385.386 320 385C316.5 390.5 316.391 393.104 316.247 395.226C317.489 392.525 320.815 392.107 322.28 392.042C333.386 393.663 330.042 404.487 327.283 407.96C326.421 409.793 318.661 420.18 314.695 426C310.386 419.826 304.952 412.784 301.848 407.96C298.919 404.294 297.453 398.216 301.417 394.454C306.03 390.076 311.014 393.039 313.141 395.226C312.796 391.907 310.765 387.026 309.5 385Z" fill="black"/>
<path d="M309.5 385C310.926 386.114 319.684 385.386 320 385C316.5 390.5 316.391 393.104 316.247 395.226C317.489 392.525 320.815 392.107 322.28 392.042C333.386 393.663 330.042 404.487 327.283 407.96C326.421 409.793 318.661 420.18 314.695 426C310.386 419.826 304.952 412.784 301.848 407.96C298.919 404.294 297.453 398.216 301.417 394.454C306.03 390.076 311.014 393.039 313.141 395.226C312.796 391.907 310.765 387.026 309.5 385Z" fill="black"/>
<path d="M309.5 385C310.926 386.114 319.684 385.386 320 385C316.5 390.5 316.391 393.104 316.247 395.226C317.489 392.525 320.815 392.107 322.28 392.042C333.386 393.663 330.042 404.487 327.283 407.96C326.421 409.793 318.661 420.18 314.695 426C310.386 419.826 304.952 412.784 301.848 407.96C298.919 404.294 297.453 398.216 301.417 394.454C306.03 390.076 311.014 393.039 313.141 395.226C312.796 391.907 310.765 387.026 309.5 385Z" stroke="black"/>
<path fill-rule="evenodd" clip-rule="evenodd" d="M35.5 92H19V84H23.5L33.5 29H40L54.5 84H59V92H43V84H48L44.5 74.5H32L30.5 84H35.5V92ZM44.5 69.5H32L37.5 43.5L44.5 69.5Z" fill="black" stroke="black"/>
<path fill-rule="evenodd" clip-rule="evenodd" d="M311.5 437H295V445H299.5L310.5 500H317.5L330.5 445H335V437H319V445H324L320.5 454.5H308L306.5 445H311.5V437ZM320.5 459.5H308L313.5 485.5L320.5 459.5Z" fill="black" stroke="black"/>
</svg>
